# xmcd
#
# Track frame offsets:
#	150
#	37872
#	39862
#	42715
#	63967
#	94182
#	111607
#	142472
#	166972
#
# Disc length: 2871 seconds
#
# Revision: 1
# Processed by: cddbd v1.5.1PL0 Copyright (c) Steve Scherf et al.
# Submitted via: CDex 1.50Beta5
#
DISCID=800b3509
DTITLE=Super Junky Monkey - キャベツ
DYEAR=1900
DGENRE=
TTITLE0=Matador
TTITLE1=Super Junkey Monkey
TTITLE2=Revenge
TTITLE3=Find Yourself
TTITLE4=Shower
TTITLE5=Faster
TTITLE6=Popo BAR
TTITLE7=You are not the one
TTITLE8=Bed side session
EXTD=
EXTT0=
EXTT1=
EXTT2=
EXTT3=
EXTT4=
EXTT5=
EXTT6=
EXTT7=
EXTT8=
PLAYORDER=
